<svg xmlns="http://www.w3.org/2000/svg" xmlns:xlink="http://www.w3.org/1999/xlink" viewBox="0 0 238.26 451.92"><defs><style>.cls-1{fill:url(#linear-gradient);}</style><linearGradient id="linear-gradient" x1="23.93" y1="-9.67" x2="214.33" y2="461.59" gradientUnits="userSpaceOnUse"><stop offset="0.51" stop-color="#fff"/><stop offset="1" stop-color="#f3f3f3"/></linearGradient></defs><g id="Layer_2" data-name="Layer 2"><g id="Layer_1-2" data-name="Layer 1"><path class="cls-1" d="M233.08,5.75,227.9,0l-5.18,5.75L217.54,0l-5.18,5.75L207.18,0,202,5.75,196.82,0l-5.17,5.75L186.47,0l-5.18,5.75L176.11,0l-5.18,5.75L165.75,0l-5.18,5.75L155.39,0l-5.18,5.75L145,0l-5.18,5.75L134.67,0l-5.18,5.75L124.31,0l-5.18,5.75L114,0l-5.18,5.75L103.59,0,98.41,5.75,93.23,0,88.05,5.75,82.87,0,77.69,5.75,72.51,0,67.33,5.75,62.16,0,57,5.75,51.8,0,46.62,5.75,41.44,0,36.26,5.75,31.08,0,25.9,5.75,20.72,0,15.54,5.75,10.36,0,5.18,5.75,0,0V451.92l5.18-5.75,5.18,5.75,5.18-5.75,5.18,5.75,5.18-5.75,5.18,5.75,5.18-5.75,5.18,5.75,5.18-5.75,5.18,5.75L57,446.17l5.18,5.75,5.17-5.75,5.18,5.75,5.18-5.75,5.18,5.75,5.18-5.75,5.18,5.75,5.18-5.75,5.18,5.75,5.18-5.75,5.18,5.75,5.18-5.75,5.18,5.75,5.18-5.75,5.18,5.75,5.18-5.75,5.18,5.75,5.18-5.75,5.18,5.75,5.18-5.75,5.18,5.75,5.18-5.75,5.18,5.75,5.18-5.75,5.18,5.75,5.18-5.75,5.17,5.75,5.18-5.75,5.18,5.75,5.18-5.75,5.18,5.75,5.18-5.75,5.18,5.75,5.18-5.75,5.18,5.75V0Z"/></g></g></svg>