<svg xmlns="http://www.w3.org/2000/svg" viewBox="0 0 868.01 875.46">
    <defs>
        <style>
            .cls-2{fill:#4154a5}.cls-3{fill:#e44c25}.cls-4{fill:#56c0ee}.cls-8,.cls-9{fill:#fff}.cls-8{fill-rule:evenodd}.cls-10{fill:#d42026}.cls-11{fill:#5d54a4}.cls-12{fill:#e34d25}
        </style>
    </defs>
    <g id="Layer_2" data-name="Layer 2">
        <g id="Layer_1-2" data-name="Layer 1">
            <text transform="translate(72.66 817.1)" style="fill:#4154a5;font-size:125.95px;font-family:MarkerFelt-Wide,Marker Felt">BRICOLI DARI</text>
            <path class="cls-2" d="m114.31 617.07 2.88 9.77q-13.93.23-22.87 13.71-3.79 9.48-.84 15.53t13.86 5.38h76.73q3.94-3 .08-5.53h-47q-9.7-1.14-12.73-10.72t10.3-20.79q23.94-14.31 53 3.79l-5.72 8.71q-19.47-13.93-38.86-7.5-10.9 4.92-10.3 10.56t4.47 5.65H182q6.43 0 11.66 6 7 16.59-15.22 20.15h-78.4a25.12 25.12 0 0 1-13.55-6.67A20.6 20.6 0 0 1 82 652.9q1.26-28.64 32.31-35.83Zm6.78 74.72a5.73 5.73 0 0 0 8.45 0 6.8 6.8 0 0 0 .07-9 5.37 5.37 0 0 0-4.09-1.78 5.9 5.9 0 0 0-4.35 1.89 6.1 6.1 0 0 0-1.86 4.4 6.28 6.28 0 0 0 1.78 4.49Zm14.47 0a5.72 5.72 0 0 0 8.44 0 6.79 6.79 0 0 0 .08-9A5.37 5.37 0 0 0 140 681a5.92 5.92 0 0 0-4.36 1.89 6.13 6.13 0 0 0-1.85 4.4 6.24 6.24 0 0 0 1.77 4.5ZM236.87 671.76q-6.13 25.44-37.65 20.6l1.06-9.62q13.11 3 19.05-.79a17.68 17.68 0 0 0 7.77-10.19v-39.69h9.77ZM246.11 671.76v-75.14h9.54v75.14ZM299.13 617.9q32.94 2.28 34 33.79-.92 11.58-11.44 19.46a52.9 52.9 0 0 1-11.74.61h-39.76l-5.07-10.3h50a8.31 8.31 0 0 0 6.21-4.17q6.29-29.68-24.84-28.55-15.49 4.16-19.93 20.37h-10.31q4.54-27.57 32.88-31.21ZM473.11 655.93q5.14 13.56-12 15.83h-66.24a25.12 25.12 0 0 1-13.56-6.67 20.66 20.66 0 0 1-4.55-12.19q1.29-28.64 32.35-35.83l2.87 9.77q-13.94.23-22.87 13.71-3.8 9.48-.83 15.53t13.86 5.38h60.06q3.94-3 .08-5.53H429l-7.42-10.3h57.18q7.13.15 9.78 3l5.83 13h4.16v10.3H487.8l-7.95-16Zm-57.68 35.86a5.73 5.73 0 0 0 8.45 0 6.8 6.8 0 0 0 .07-9 5.37 5.37 0 0 0-4.09-1.78 5.9 5.9 0 0 0-4.35 1.89 6.1 6.1 0 0 0-1.86 4.4 6.24 6.24 0 0 0 1.78 4.49Zm14.47 0a5.72 5.72 0 0 0 8.44 0 6.79 6.79 0 0 0 .08-9 5.38 5.38 0 0 0-4.09-1.78 5.92 5.92 0 0 0-4.36 1.89 6.13 6.13 0 0 0-1.85 4.4 6.24 6.24 0 0 0 1.78 4.49Z"/>
            <path class="cls-2" d="M496.67 671.76v-10.3h12.42v-64.84h9.54v75.14ZM596.65 661.46v10.3h-57.72a19.2 19.2 0 0 1-10.38-9.76q-8-33 22-41.74 41.06-3.71 37.57 41.21-2.43 29.68-21.29 32h-22.29l-5.61-10.3H569q9.76-7.27 10.08-22.72 2.42-34.62-28.33-31.13-14.4 4.08-14.92 20.83-.92 7.33 5.68 11.36Z"/>
            <path class="cls-2" d="m676.18 596.32-1.52 12.19-46.13 20.08h31.14q11.21.15 16.74 3.78 12.35 9.48 6 29.09-3.72 7.42-15.07 10.3h-74.25v-10.3h69c4.59 0 7.73-.73 9.39-2.2s2.65-4 3-7.46-.46-6.35-2.28-8.52a10.18 10.18 0 0 0-6.09-3.83 87.31 87.31 0 0 0-12.54-.49h-46c-3.89 0-6.28-1-7.16-3s.06-4.13 2.84-6.4Zm14.92 65.14v10.3h-19.77q11-5.14 12.12-10.3Z"/>
            <path class="cls-2" d="M688.07 661.46h17.27v-28h10.3v38.25h-27.57Zm3.22 30.33a5.72 5.72 0 0 0 8.44 0 6.79 6.79 0 0 0 .08-9 5.38 5.38 0 0 0-4.09-1.78 5.92 5.92 0 0 0-4.36 1.89 6.13 6.13 0 0 0-1.85 4.4 6.24 6.24 0 0 0 1.78 4.49Zm14.47 0a5.72 5.72 0 0 0 8.44 0 6.82 6.82 0 0 0 .08-9 5.4 5.4 0 0 0-4.09-1.78 5.92 5.92 0 0 0-4.36 1.89 6.1 6.1 0 0 0-1.86 4.4 6.25 6.25 0 0 0 1.79 4.49ZM760.63 671.76h-5.91q-6.13 25.44-37.64 20.6l1.06-9.62q13.1 3 19.05-.79a17.62 17.62 0 0 0 7.81-10.19v-39.69h9.77v29.39h5.91Z"/>
            <path class="cls-2" d="M758 661.46h14.24v-28h10.3v38.25H758Zm15.11 30.33a5.73 5.73 0 0 0 8.45 0 6.8 6.8 0 0 0 .07-9 5.37 5.37 0 0 0-4.09-1.78 5.9 5.9 0 0 0-4.35 1.89 6.35 6.35 0 0 0-.08 8.9Z"/>
        </g>
        <g id="Layer_2-2" data-name="Layer 2">
            <path class="cls-3" d="M831.42 235.41h-63.91L413.42 34.91 433.57 0l397.85 235.41z"/>
            <path class="cls-3" d="m31.93 237.11 68.88.55L453.73 34.91 433.58 0 31.93 237.11z"/>
            <path class="cls-4" d="M231.42 574.67H117.33V237.41l114.09-64.91v402.17z"/>
            <path style="fill:#f7ec13" d="M358.12 574.67H244.03V166.32l114.09-68v476.35z"/>
            <path style="fill:#afd136" d="M624.82 574.67H510.73V98.32l114.09 68v408.35z"/>
            <path style="fill:#795649" d="M497.4 574.67H372.18V90.1l62.86-32.53L497.4 90.1v484.57z"/>
            <g id="layer3">
                <path id="path5874" class="cls-8" d="m592.17 217.2-12.76 28.92 25.28 11.23-3.12-26.06c-.73-6.16-4-10.76-9.4-14.09Z"/>
                <path id="path5878" class="cls-8" d="m565.65 205.41-12.26 27.82c-1 3 2.54 6.07 6.79 7.83l45.08 19.87c-9.58 15.12-23.06 31.56-22.2 55.7l5.22 166a19.92 19.92 0 0 1-1.35 9.18 17.37 17.37 0 0 1-22.9 8.9 17.11 17.11 0 0 1-10.37-15.76l2.78-176.33c.43-24.32-16.18-41.37-25.2-61.77-5.98-13.52 17.57-43.53 34.41-41.44ZM572.5 260a3.35 3.35 0 0 0-4.42 1.71L559 282.25a3.35 3.35 0 0 0 1.7 4.42l15.43 6.83a3.35 3.35 0 0 0 4.42-1.72l9.12-20.57a3.33 3.33 0 0 0-1.7-4.41Zm3.72 211.36a13.38 13.38 0 1 0 6.86 17.64 13.37 13.37 0 0 0-6.86-17.67Z"/>
                <rect id="rect1493" class="cls-9" x="563.9" y="267.51" width="20.44" height="18.22" rx="4.1" transform="rotate(-65.8 577.176 277.356)"/>
            </g>
            <path class="cls-10" d="M751.51 574.67H637.42V172.5l114.09 64.91v337.26z"/>
            <path class="cls-11" d="M726.51 515.23H657.6l4-75.76s6.5 5.86 29.47 7.69c8.62.68 34.4-3.43 34.4-3.43Z"/>
            <path class="cls-9" d="M662.59 328.71h.08a24 24 0 0 1 23.78 27c-1.33 10.59-2.57 20.36-2.57 20.86a13.24 13.24 0 0 0 26.47 0c0-.5-1.21-10.27-2.57-20.86a24 24 0 0 1 23.79-27h.08v-16.45h-69.12v16.45Zm34.55 55.13a7.23 7.23 0 1 1 7.22-7.22 7.23 7.23 0 0 1-7.22 7.22Zm-29.64-68.26h59.27v9.49H667.5ZM657.45 257.31l6.61 51.69h64.36l8.42-51.68h-16.06l-5 17.45-.12-17.45h-27.5l-2.43 9.89-1.57-9.89h-13.69c0 4.44.38 15.8.38 15.8L666 257.31Z"/>
            <path class="cls-10" d="M751.51 549.72c64.34 0 93.31 4 116.5 24.95H751.52"/>
            <path class="cls-4" d="M117.33 549.72C53 549.72 24 553.75.84 574.67h116.48"/>
            <path class="cls-9" d="M389.17 189.9c.14 2.57.85 10.79 1.57 18.26 1.49 15.89 2.36 31.64 2 35.37a6.1 6.1 0 0 1-1.8 4.29 8.45 8.45 0 0 0-1.92 3.24c-.22.92.55 9.89 1.74 20l2.12 18.34h2.61c1.41 0 7.89-.14 14.4-.36l11.83-.41 1.4-3a15.64 15.64 0 0 1 4-5.52c3.7-3.61 6.49-4.55 14-4.9 6.94-.33 10.27-1 12.59-2.47 1.93-1.22 2.06-1.42 3.59-6.71a15.15 15.15 0 0 1 3.45-6.9 24.49 24.49 0 0 1 5.09-4.71c3.89-2.68 7.5-6.75 8.77-9.84 1-2.56 1-4.25-1.5-44.85l-.33-5.56-2.22.09c-1.88.08-2.53.37-4.44 2.12-4 3.53-5.74 3.86-20 4.05-15 .22-21 0-28.23-1.07-9.62-1.45-15.13-3.75-19.17-8.08a19.33 19.33 0 0 0-7.93-5.4l-1.91-.64Zm18.62 31.1c1.51-.68 6.1-.78 25.26-.4 12.86.23 24.1.6 25 .79a9.63 9.63 0 0 1 6.21 4.82 13.16 13.16 0 0 1-1.51 14.94c-2.78 3-4.53 3.16-29.21 2.66-12.57-.28-23.75-.71-24.77-1-5.84-1.48-9.26-9.75-6.56-16a14.18 14.18 0 0 1 5.58-5.81Zm-7.92 48.71a5.4 5.4 0 0 1 3.09-.3l1.55.43-3.31 3.6c-1.8 2-3.37 3.47-3.54 3.31-.61-.56-.78-2.9-.32-4.29.66-1.85.66-1.89 2.53-2.75Zm6.47 2.62a5.07 5.07 0 0 1-1.22 5 3.9 3.9 0 0 1-4.35 1.32l-1.51-.39 3.3-3.6 3.27-3.56Zm33.87-14.14a5.34 5.34 0 0 1 2.42.1l1.51.39-3.3 3.6-3.3 3.6-.54-1.48a5 5 0 0 1-.33-2.3 7.65 7.65 0 0 1 3.54-3.91Zm5.85 3.24a4.81 4.81 0 0 1-6.34 5.95c-.69-.27-.48-.63 2.51-3.89l3.27-3.57Z"/>
            <path class="cls-9" d="M409.69 380.68c7 47.74 13 87.27 13.36 87.88 1.1 2.07 3.25 2.86 10.43 3.63l7 .74 4.84-2.81 4.9-2.82-2.08-2.1a10.36 10.36 0 0 1-1.93-2.26 20.87 20.87 0 0 1 2.53-1.06 18.17 18.17 0 0 0 2.57-1.09 9.69 9.69 0 0 0-2.05-2.19l-2.21-2 1.83-.7a29.75 29.75 0 0 0 2.75-1.22c.95-.57.95-.63-1.21-2.37-1.18-1-2.07-1.9-1.95-2a20.48 20.48 0 0 1 2.85-1.4l2.59-1.12-2.33-1.89c-2.61-2.14-2.61-2.14 1.15-3.57a10 10 0 0 0 2-.9c.12-.14-.86-1-2.18-2.06a8.57 8.57 0 0 1-2.24-2 20.87 20.87 0 0 1 2.53-1.06c3.44-1.29 3.5-1.42.87-3.33-1.31-1-2.13-1.77-2-1.94a18.68 18.68 0 0 1 2.93-1.5l2.63-1.15-2.43-1.79c-1.35-1-2.36-1.85-2.24-2a25.48 25.48 0 0 1 2.78-1.33 28.72 28.72 0 0 0 2.72-1.26 17.36 17.36 0 0 0-2.33-2l-2.4-1.82 2.66-1.19a20.72 20.72 0 0 0 2.87-1.37c.13-.13-.75-1-1.94-2-2.53-2-2.5-2.11.93-3.4l2.41-.92-2.21-2a12.91 12.91 0 0 1-2.08-2.16c.06-.06 1.24-.61 2.65-1.19l2.5-1-2.08-2.09-2.08-2.14 2.56-1.09c1.38-.61 2.59-1.19 2.66-1.26a8.43 8.43 0 0 0-1.92-2.07c-2.31-2.12-2.28-2.15 1.67-3.66l1.86-.73-2.3-1.92c-2.61-2.2-2.61-2.2 1.11-3.6a9.75 9.75 0 0 0 2-.9c.13-.14-.86-1-2.14-2.1a13.88 13.88 0 0 1-2.27-1.95 16.46 16.46 0 0 1 2.53-1.06c3.43-1.29 3.49-1.42.9-3.37-1.25-.89-2.13-1.76-2-1.93a20.78 20.78 0 0 1 2.91-1.47l2.65-1.12-2.46-1.82a9.81 9.81 0 0 1-2.23-2 22.7 22.7 0 0 1 2.78-1.33 27.39 27.39 0 0 0 2.75-1.29 13.06 13.06 0 0 0-2.34-2l-2.43-1.78 2.66-1.2a19 19 0 0 0 2.91-1.39c.15-.17-.73-1-1.95-2-2.59-1.94-2.53-2.07.9-3.36a24.14 24.14 0 0 0 2.5-1 21.05 21.05 0 0 0-2.24-2c-1.28-1.05-2.27-2-2.17-2.06a23 23 0 0 1 2.68-1.22l2.5-1L469 343l-2.11-2.12 2.56-1.09c1.38-.61 2.59-1.19 2.66-1.26a8.25 8.25 0 0 0-1.89-2c-1.12-1-2-1.93-1.88-2s1.28-.64 2.66-1.25l2.56-1.09-2.07-2.19-2.09-2.09 2.5-1a23.53 23.53 0 0 0 2.69-1.22 9.55 9.55 0 0 0-2.14-2c-2.57-2.11-2.63-2 1.74-3.59l2-.78-2.4-1.88c-1.38-1.09-2.3-2-2.11-2.2a6.83 6.83 0 0 1 1.69-.82c.83-.3 2-.8 2.63-1.09l1.18-.61-2.46-1.82a12.11 12.11 0 0 1-2.3-1.92 24.11 24.11 0 0 1 2.75-1.29 24.48 24.48 0 0 0 2.78-1.33 11.29 11.29 0 0 0-2.31-2l-2.4-1.76 2.66-1.2a16.83 16.83 0 0 0 2.94-1.43c.15-.17-.73-1-2-1.93-2.59-2-2.53-2.08.9-3.37a21.84 21.84 0 0 0 2.5-1 20.4 20.4 0 0 0-2.24-2 8.89 8.89 0 0 1-2.14-2.1 15.72 15.72 0 0 1 2.59-1.12 17.22 17.22 0 0 0 2.56-1.09 9.69 9.69 0 0 0-2.01-2.26l-2.21-2 1.83-.7c3.89-1.5 3.92-1.53 1.61-3.65a8.68 8.68 0 0 1-1.92-2.07c.07-.07 1.28-.65 2.69-1.29l2.56-1.09-2.17-2-2.21-2 2.59-1.13c1.44-.61 2.66-1.19 2.72-1.25a11.05 11.05 0 0 0-1.91-2c-1.19-1.09-1.91-2-1.73-2.21a12.5 12.5 0 0 1 2.72-1.26l2.41-.92-2.61-2.39-2.68-2.4-4.77-.18c-6.57-.28-7.66.1-11.18 3.93-2.71 3-2.83 3.16-3.77 7.05-1.6 6.85-4.58 9.62-11.73 10.94a51.56 51.56 0 0 1-7.87.73c-5.28.09-7.73.72-10.35 2.63a12.64 12.64 0 0 0-5.09 8.47l-.29 2.36-14.17.38c-7.78.23-14.3.51-14.36.65s5.54 39.23 12.58 86.98Zm21.4 72.3a7 7 0 0 1 5 1.06 6.51 6.51 0 0 1 1.73 5.27 5.61 5.61 0 0 1-6.63 4.3c-5.28-1.44-5.4-8.67-.1-10.61ZM299.19 209.71a45.7 45.7 0 0 0-14.83 3.52 42.46 42.46 0 0 0-21.55 20.36A40.45 40.45 0 0 0 259 246.9a41.51 41.51 0 0 0 .05 7.34c.72 4.31 2.36 8.61 5.4 14.05 1.13 2 2.15 3.74 5.18 8.74 3.89 6.42 5.59 9.75 6.78 13.27a22.55 22.55 0 0 1 1.32 7.53A14.54 14.54 0 0 0 282 308.4l1 1.1v3.78l.32.35a6.57 6.57 0 0 0 1.36.92c1.3.68 1.68 1.08 1.68 1.75a.91.91 0 0 1-.4.86 8.79 8.79 0 0 1-1.35.88c-1.18.6-1.61 1-1.61 1.66s.35 1 1.28 1.5c1.65.86 2.08 1.26 2.08 1.94s-.38 1.08-1.87 1.82a5.85 5.85 0 0 0-1.12.75 1 1 0 0 0-.37.81 1.36 1.36 0 0 0 .53 1.09c.08.08.61.38 1.15.69a7.26 7.26 0 0 1 1.34.89 1 1 0 0 1 .34.87c0 .63-.24.94-1.34 1.75a5.36 5.36 0 0 0-1 .9 1.35 1.35 0 0 0 .08 1.5c.14.22 1.55 1.67 3.12 3.23 2.87 2.85 3.89 4.05 4.78 5.62l.37.67h18.92l.18-.32c1-1.88 2.41-3.53 5.4-6.41 1.29-1.26 2.51-2.51 2.68-2.77.61-.92.4-1.55-.85-2.47s-1.34-1.12-1.34-1.75.35-1.05 1.7-1.76 1.65-1.1 1.65-1.75a1 1 0 0 0-.37-.84 5.85 5.85 0 0 0-1.12-.75c-1.49-.74-1.86-1.12-1.86-1.82s.43-1.08 2.07-1.94c.94-.48 1.28-.89 1.28-1.5s-.43-1.06-1.6-1.66a8.32 8.32 0 0 1-1.35-.88.91.91 0 0 1-.4-.86c0-.67.37-1.07 1.67-1.75a6.42 6.42 0 0 0 1.37-.92l.31-.35v-3.82l.94-1a16.61 16.61 0 0 0 2.61-3.63 14.78 14.78 0 0 0 1.64-7 22.26 22.26 0 0 1 1.32-7.53c1.27-3.78 2.8-6.7 7.69-14.79 3.24-5.33 4.34-7.25 5.66-9.85a38.29 38.29 0 0 0 4-11.42 42 42 0 0 0 .05-7.39 40.28 40.28 0 0 0-3.95-13.59 42.88 42.88 0 0 0-31.07-22.92c-.84-.15-2.18-.35-3-.44-1.43-.1-6.22-.23-7.41-.14Zm6.44 6.13a39.58 39.58 0 0 1 27 13.59 33.28 33.28 0 0 1 7.84 20.41c.15 4.56-.93 8.61-3.95 14.77-1.15 2.32-1.91 3.72-4.83 8.8-4.76 8.35-6.52 11.94-7.83 16a25.31 25.31 0 0 0-1.39 7.7 16.11 16.11 0 0 1-.77 5.1 6.72 6.72 0 0 1-1.82 3l-.75.76h-34.6l-.76-.76a7.12 7.12 0 0 1-1.85-3.08 17.29 17.29 0 0 1-.74-5 25.41 25.41 0 0 0-1.43-7.86c-1.29-3.95-3-7.39-7.74-15.72-3-5.22-3.73-6.59-4.87-8.91-3-6.13-4.11-10.21-3.95-14.77.5-14.51 10.15-26.89 24.91-31.93a43.07 43.07 0 0 1 17.53-2.1Z"/>
            <path class="cls-9" d="M283.69 241c-.44 1.68-1.56 6.27-1.54 6.3s.56-.76 1.21-1.71a20 20 0 0 1 1.24-1.73s.64 1.59 1.33 3.54l1.26 3.53h.85c.85 0 .85 0 1-.26s.64-1.75 1.28-3.53 1.17-3.26 1.21-3.29.07 0 .1.09c.41 1.14 2.46 7 2.46 7a6.56 6.56 0 0 0 .87 0h.86l1.25-3.49c.68-1.91 1.27-3.51 1.31-3.56a33.88 33.88 0 0 1 1.33 3.46l1.27 3.53h1.74l1.26-3.54a34.7 34.7 0 0 1 1.34-3.46c0 .06.63 1.66 1.31 3.57l1.24 3.49h.86a6.41 6.41 0 0 0 .87 0s2.06-5.84 2.47-7c0-.08.08-.12.1-.09s.58 1.51 1.21 3.29 1.2 3.38 1.27 3.53.12.3 1 .26h.85l1.25-3.53c.7-1.95 1.29-3.54 1.34-3.54s.59.77 1.23 1.73 1.2 1.72 1.22 1.71-1.1-4.62-1.54-6.3l-.11-.4h-1.7l-1.25 3.55a32.73 32.73 0 0 1-1.34 3.45s-.58-1.5-1.2-3.22-1.18-3.31-1.26-3.49l-.14-.34h-1.66l-1.18 3.32c-.65 1.84-1.23 3.45-1.28 3.6s-.12.23-.19.1-.61-1.64-1.26-3.46-1.2-3.36-1.22-3.43-.29-.13-.91-.11h-.84l-1.27 3.53c-.69 2-1.28 3.55-1.31 3.55s-.62-1.6-1.31-3.55l-1.27-3.53h-.85c-.62 0-.86 0-.9.11l-1.23 3.43c-.65 1.81-1.32 3.39-1.32 3.47s-.11.11-.19-.1-.63-1.76-1.28-3.6l-1.19-3.32h-1.65l-.15.34c-.07.18-.64 1.76-1.26 3.49s-1.15 3.18-1.19 3.22a32.73 32.73 0 0 1-1.34-3.45l-1.26-3.55h-1.7ZM278.78 246.93a4.24 4.24 0 0 0-1 .59s3.08 6.65 6.85 14.67l6.85 14.58.38 12c.21 6.6.41 12.38.44 12.86l.07.87h3.77l-.06-1c0-.52-.17-3.21-.29-5.94s-.36-8.49-.55-12.79l-.34-7.8-7.52-14.2c-4.14-7.81-7.56-14.24-7.59-14.27a3.61 3.61 0 0 0-1.01.43ZM323.42 247.19c-.23.42-3.64 6.84-7.58 14.28L308.68 275l-.33 7.8c-.19 4.3-.44 10-.56 12.79s-.24 5.42-.28 5.95l-.06 1h3.77l.06-.93c0-.5.23-6.28.44-12.86l.39-11.94 6.13-13c7.77-16.54 7.57-16.11 7.57-16.21a4.14 4.14 0 0 0-1-.58l-1-.49ZM739.65 423.81c0-10.91-19-19.85-42.44-19.85s-42.44 9-42.44 19.9a7.41 7.41 0 0 0 .19 2h.44a10.05 10.05 0 0 0 .1 2.19v-1.93a2.67 2.67 0 0 1-.09-.26h.09v.26c2.6 9.75 20.24 17.3 41.89 17.3 21.44 0 38.68-7.41 41.53-17v-.54h.18c-.05.18-.13.36-.18.54V428a10.12 10.12 0 0 0 .18-2.19h.35a7.27 7.27 0 0 0 .2-2Zm-4.32 1.65a9.44 9.44 0 0 1-2.38 4.43c-5.49 6.12-19.4 10.48-35.74 10.48-14.58 0-27.25-3.46-33.72-8.56-2.43-1.92-4-4.07-4.4-6.35a6.82 6.82 0 0 1-.16-1.35 8.3 8.3 0 0 1 2-5.13c5.06-6.46 19.39-11.13 36.31-11.13 17.9 0 32.88 5.23 37.07 12.28a7.75 7.75 0 0 1 1.2 4 6.81 6.81 0 0 1-.18 1.33Z"/>
            <path class="cls-11" d="M697.88 413.34c-14.23 0-33.24 1.33-37.85 10.77-.2.41.07.91.17 1.35a9 9 0 0 0 2.63 4.31c5.63 5.51 19.1 9.51 34.38 9.51s28.75-4 34.38-9.51a9 9 0 0 0 2.63-4.31c.1-.44.35-.93.17-1.35-4.07-9.63-21.62-10.77-36.51-10.77Z"/>
            <path class="cls-9" d="m738.51 513.06.41-.89v-77.81c-4.39 5.13-12.41 9-23.88 10.94a2.39 2.39 0 0 1 1.28 1.75c1 3.49 1.49 7.06 2.19 10.61a3.12 3.12 0 0 1 0 .91 35 35 0 0 1 1.9 11.89c0 2.91-3.59 3.51-5.11 1.39-2.52-3.51-5-7.74-8.08-11.18-1.59-1-3.16-1.46-4.39-.8a77.35 77.35 0 0 0 .21 14.36c.87 3.79 1.71 7.56 2.25 11.33.68 4.78 3 13.48-1.42 17.21-14.39 12.27-16.4-20.93-16.79-26.95-.34-5.38-2.45-10.35-4.92-15.13.24 4.22.64 9.9-2.27 12.8-3.76 3.76-12.31 3-14.83-1.87-4.88-9.47-3.09-21.84-3.37-32.12-2.6-1.51-4-3.24-6.22-5.14v78.28l.36.42c1.88 9.56 20.06 17 41.25 17s39.54-7.44 41.43-17Zm-19.35-28.51c-4.39 0-4.39-5.49 0-5.49 2.2 0 2.2 5.49 0 5.49Z"/>
            <path class="cls-8" d="M262.41 441.69v10.74c0 21.68 9.63 32.29 31.73 35v21.64h16.16v-21.92c21.88-2.1 31.73-15 31.73-36v-9.46h3.16a5.11 5.11 0 0 0 5.11-5.11v-5.91a5.12 5.12 0 0 0-5.1-5.11H330v-31.33a8.1 8.1 0 0 0-8.09-8.08 8.12 8.12 0 0 0-8.08 8.08v31.33h-23.69v-31.33a8.11 8.11 0 0 0-8.08-8.08 8.1 8.1 0 0 0-8.08 8.08v31.33H258.4a5.13 5.13 0 0 0-5.1 5.11v5.91a5.12 5.12 0 0 0 5.1 5.11Zm42.81 9.1h4.62a1.22 1.22 0 0 1 1.21 1.22 1.13 1.13 0 0 1-.21.67l-11 18.79a1.21 1.21 0 0 1-1.66.43 1.23 1.23 0 0 1-.59-1.06 1 1 0 0 1 0-.24l1.62-11.53-5.44.08a1.2 1.2 0 0 1-1.21-1.18 1.28 1.28 0 0 1 .16-.63l10.82-18.78a1.21 1.21 0 0 1 2.25.62.43.43 0 0 1 0 .16l-.56 11.45Z"/>
            <path class="cls-9" d="M191.78 234.88a8 8 0 0 0-6.11 3.24l-.58.85h-26.58l-.54-.73a8.17 8.17 0 0 0-14.3 1.92 6.67 6.67 0 0 0-.38 3.19 6.06 6.06 0 0 0 .73 3.23 9.35 9.35 0 0 0 3.81 3.77 6.36 6.36 0 0 0 3.17.65 6.81 6.81 0 0 0 3.19-.37 8 8 0 0 0 3.59-2.65l.62-.88h9.23v3.8l-.06 3.77-1.09.38a15.55 15.55 0 0 0-5.71 3.48 16.45 16.45 0 0 0-3.75 5l-.23.65H131v16.47h27.87l1.57 1.5a15.57 15.57 0 0 0 11.42 4.63 15.74 15.74 0 0 0 11.63-4.88l1.28-1.29 1.39.25a13.23 13.23 0 0 1 8.09 5.69 14.72 14.72 0 0 1 1.69 5.08L196 293h-1.78a4.78 4.78 0 0 0-3.08.69 5.68 5.68 0 0 0-3 3.62 6.06 6.06 0 0 0 3.44 7.24c.94.44 1.21.44 12.64.44h11.68l1.11-.5a6.07 6.07 0 0 0 2.83-8.36c-1.14-2.11-2.67-3-5.5-3.13l-2-.11-.15-2a24.38 24.38 0 0 0-1.33-6.85 28.72 28.72 0 0 0-21.29-19.14c-.89-.17-1.83-.35-2.08-.42s-.67-.46-1-1.19a16.68 16.68 0 0 0-8.67-8l-1.74-.69-.06-3.77v-3.76h9l1.12 1.26a8.25 8.25 0 0 0 2.53 1.91c1.29.65 1.52.69 3.58.69s2.34-.06 3.38-.56a8.55 8.55 0 0 0 4-3.9 5.62 5.62 0 0 0 .67-3.46 5.87 5.87 0 0 0-.67-3.48 8.43 8.43 0 0 0-5.42-4.55 12.34 12.34 0 0 0-2.43-.1ZM204.23 315.9c-.13 0-7.42 14-7.7 14.74a8.17 8.17 0 1 0 15.79 4c.44-2.39.14-3.21-4.17-11.4-2.15-4.02-3.9-7.34-3.92-7.34ZM139.79 357.12a8.77 8.77 0 0 0-5.86 6.24c-.2.85-.24 2.47-.24 9.09v8.09h81.54v-8.56l-.05-8.56-.38-.95a9 9 0 0 0-5.15-5.22l-.84-.35h-34c-32.19-.07-34.08-.05-35.02.22ZM133.69 387c0 3.38.14 4.27.95 5.92a8.54 8.54 0 0 0 4.84 4.21l1.13.41 33.13.05c22.56 0 33.47 0 34.23-.13a10.29 10.29 0 0 0 4.4-2 9.18 9.18 0 0 0 2.34-3.47c.38-1 .41-1.3.48-4.57l.06-3.45h-81.56Zm53.84.89a1.69 1.69 0 0 1-.34 2.61c-.41.26-2.24.27-22.93.27s-22.52 0-22.93-.27a1.68 1.68 0 0 1-.33-2.61l.46-.46h45.6Zm10.19 0a1.68 1.68 0 0 1-.34 2.61c-.35.23-.87.27-2.53.27-2.28 0-2.77-.12-3.14-.81a1.74 1.74 0 0 1 .24-2.07l.46-.46h4.85Zm10.19 0a1.68 1.68 0 0 1-.34 2.61c-.35.23-.87.27-2.53.27-2.27 0-2.77-.12-3.13-.81a1.73 1.73 0 0 1 .23-2.07l.47-.46h4.84ZM146.33 401.23a7.41 7.41 0 0 0-2.08 3.18 10.12 10.12 0 0 0 .09 4.88c.19.7.81 2.5 1.37 4 1.23 3.25 1.51 4.3 1.51 5.45a3.91 3.91 0 0 1-.9 2.74 2 2 0 0 0-.66 2 1.59 1.59 0 0 0 1.59 1.16c.86 0 1.87-.95 2.6-2.45 1.28-2.61 1.07-4.87-.89-9.95s-2.05-6.64-.56-8.41a1.66 1.66 0 0 0 .26-2.08 1.6 1.6 0 0 0-2.33-.52ZM159.87 401.23a7.33 7.33 0 0 0-2.09 3.18 10.26 10.26 0 0 0 .1 4.88c.19.7.79 2.5 1.37 4 1.22 3.24 1.51 4.3 1.51 5.45a3.87 3.87 0 0 1-.91 2.74 2.05 2.05 0 0 0-.65 2 1.58 1.58 0 0 0 1.59 1.16c.86 0 1.86-.95 2.6-2.45 1.27-2.63 1.06-4.93-.94-10.09-1.9-4.83-2-6.52-.51-8.27a1.65 1.65 0 0 0 .25-2.08 1.59 1.59 0 0 0-2.32-.52ZM173.4 401.23a7.69 7.69 0 0 0-2.07 3.07c-.65 1.91-.27 4.56 1.15 8.22 2.15 5.49 2.34 7.28.91 8.93-.72.85-.89 1.48-.62 2.17a1.57 1.57 0 0 0 1.56 1c1.32 0 3-2.37 3.31-4.69.27-2-.11-3.76-1.67-7.87-1.26-3.28-1.52-4.24-1.52-5.54a3.82 3.82 0 0 1 1-2.72 1.67 1.67 0 0 0 .24-2.07 1.6 1.6 0 0 0-2.29-.5ZM195.44 401.39l-.52.46-.08 4-.08 4-3.17-1.85a36.33 36.33 0 0 0-3.63-1.93 1.71 1.71 0 0 0-1.64.69 2.1 2.1 0 0 0 0 1.92 26.22 26.22 0 0 0 3.21 2.06c1.66.94 3.12 1.8 3.28 1.91s-.11.41-2.94 2.05a30.4 30.4 0 0 0-3.51 2.2 1.8 1.8 0 0 0-.28 1 1.37 1.37 0 0 0 .46 1.17c.84.82 1.26.71 5-1.44l3.3-1.91v3.81c0 4.11.06 4.47.81 4.87a1.73 1.73 0 0 0 2.07-.24l.46-.46v-3.92a25.84 25.84 0 0 1 .14-3.91c.08 0 1.58.82 3.31 1.83 3.57 2 4 2.16 4.83 1.38a1.53 1.53 0 0 0 .35-2c-.22-.35-1.26-1-3.6-2.39-2.75-1.58-3.25-1.91-3-2.05 2.61-1.45 6.1-3.54 6.39-3.83a1.68 1.68 0 0 0-1.31-2.8 28.32 28.32 0 0 0-3.69 1.91l-3.33 1.91-.08-3.95a38.85 38.85 0 0 0-.22-4.22 1.91 1.91 0 0 0-1.52-.74 1.62 1.62 0 0 0-1.01.47ZM206.57 447.63c-4.15 3.3-7.75 7.36-9.41 10.66a11.4 11.4 0 0 0-1.53 6c0 5.43 2.25 8.71 6.81 10a23.45 23.45 0 0 0 7.62.2 11.35 11.35 0 0 0 4-1.71 7.11 7.11 0 0 0 2.08-3.57c.39-1.4.41-1.77.3-4.78a16.59 16.59 0 0 1 1.09-7.88 5.81 5.81 0 0 0 .44-1.1 16.13 16.13 0 0 0-4.41 1.12 6.69 6.69 0 0 1-1.79.57 22 22 0 0 1 .7-5.16 9.13 9.13 0 0 0 .3-1.54 9.72 9.72 0 0 0-2.68 1.37c-1.16.74-1.16.74-1.59-1.09a6.09 6.09 0 0 1 0-3.54 5.67 5.67 0 0 0 .24-1.15 26.35 26.35 0 0 0-2.17 1.6Zm1 17.4a21.58 21.58 0 0 0 .66 2.31l.26.65 1-1.07a12.87 12.87 0 0 0 2-3.11l1-2 .24 1.07a13.45 13.45 0 0 1 .26 2.66 5 5 0 0 1-.79 3.16c-1 2-1.53 2.47-2.94 2.67a27 27 0 0 1-6.51-.11c-2.46-.72-3.86-4.78-2.53-7.36a6 6 0 0 1 .57-1 2.9 2.9 0 0 1 .07.89c0 1.43.74 2.56 2.42 3.72.59.41.61.41.41 0a3.6 3.6 0 0 1 .2-2.79 12.27 12.27 0 0 1 1.7-2.19l1.31-1.39.15 1.09c.02.66.26 1.88.47 2.77ZM146.3 448.42c-.58.57-.56.8.18 2.27 1.68 3.32 1.57 4.75-.68 9.17a13 13 0 0 0-1.61 5.58c0 2.6 2.05 7.07 3.21 7.07a1.37 1.37 0 0 0 1-1.17 4.79 4.79 0 0 0-.74-1.51 7.67 7.67 0 0 1-1.22-6.27 18.27 18.27 0 0 1 1.13-2.68c2.41-4.82 2.6-7.18.83-10.82-.98-2.06-1.35-2.38-2.1-1.64ZM156.26 448.42a1.49 1.49 0 0 0-.44.72 12.45 12.45 0 0 0 .81 2c1.46 2.95 1.37 4.11-.63 8.3-1.55 3.27-1.71 3.88-1.71 6a10 10 0 0 0 2.27 6.52c.62.68 1 .74 1.47.22s.47-1-.36-2.29a8.17 8.17 0 0 1-1.43-3.89c-.12-1.5.26-2.94 1.48-5.39 2.33-4.62 2.46-7 .61-10.71-.94-1.9-1.33-2.2-2.07-1.48ZM166.52 448.11a1.18 1.18 0 0 0-.73 1.07 9.44 9.44 0 0 0 .77 2c1.37 2.82 1.22 4.32-.76 8.3a25.32 25.32 0 0 0-1.38 3.34 10.75 10.75 0 0 0 1.94 9c.64.72 1.07.81 1.51.31s.37-1.29-.42-2.49a6.85 6.85 0 0 1-1.26-4.74c.08-1.53.13-1.72 1.39-4.36 2.38-5 2.49-7 .59-10.81-.72-1.38-1.17-1.81-1.65-1.62ZM176 448.42c-.57.57-.55.8.18 2.27 1.68 3.32 1.57 4.73-.68 9.17a13.17 13.17 0 0 0-1.61 5.58 12.18 12.18 0 0 0 2.35 6.46c.66.7 1 .75 1.53.24s.46-1.07-.37-2.29a8.76 8.76 0 0 1-1.48-4.43 9.62 9.62 0 0 1 1.39-4.54c2.45-4.87 2.62-7.12.83-10.82-1-2.06-1.37-2.38-2.14-1.64ZM185.94 448.26c-.61.42-.52 1.18.35 2.93 1.35 2.71 1.16 4.72-.76 8.3a11.42 11.42 0 0 0-1.66 5.8 9.94 9.94 0 0 0 2.18 6.48c.68.81 1.11.92 1.57.4a1.63 1.63 0 0 0-.17-2.08 8.86 8.86 0 0 1-1.55-3.62c-.27-1.72 0-3.16 1.24-5.5 2.49-4.91 2.68-7.42.79-11.15a6.12 6.12 0 0 0-1.09-1.68c-.46-.24-.4-.24-.9.12ZM134.06 478.45a2.57 2.57 0 0 0-.83.89c-.39.64-.39.77-.44 28.79 0 15.48 0 28.51.05 29a2.4 2.4 0 0 0 .74 1.44c.55.55.72.6 1.68.6 2.25 0 3.21-1.12 3.21-3.72V534h3.65l.08 1.81c.11 2.69.61 3.35 2.58 3.35s3.1-1.25 3.1-3.74V534h3.33v1.33c0 1.73.24 2.53.92 3.19a2.23 2.23 0 0 0 1.7.61c2.18.17 2.95-.7 3.06-3.42L157 534h3.65v1.51c0 2.79.83 3.77 3.06 3.62 2-.13 2.66-1.11 2.66-3.8V534h3.51v1.51c0 2.57.83 3.66 2.8 3.66 2.12 0 3.1-1.17 3.1-3.73V534h3.51v1.51c0 1.85.42 2.94 1.27 3.36a3.76 3.76 0 0 0 3.1-.07c1-.59 1.24-1.17 1.31-3.07L185 534h3.65v1.42c0 2.77.67 3.74 2.55 3.74 2.19 0 3.17-1.14 3.17-3.72V534h3.14v1.44c0 1.77.35 2.53 1.5 3.17l.81.46 6.61.06c5.64 0 6.75 0 7.49-.24a3.57 3.57 0 0 0 2-1.7c.15-.3.2-8 .2-28.31v-27.96l-.39-.79a3 3 0 0 0-1.23-1.31l-.87-.5h-13.81l-.78.52c-1.23.81-1.51 1.57-1.51 4.19v2.21h-3.14V483c0-2.49-.24-3.32-1.18-4.19-.44-.4-.68-.46-1.9-.46s-1.4 0-1.81.52c-.64.73-.83 1.62-.83 4.13v2.27H185l-.08-2.55c-.05-2.27-.09-2.6-.48-3.23a2.54 2.54 0 0 0-2.51-1.23 1.88 1.88 0 0 0-1.64.55c-.83.74-1.05 1.59-1.05 4.23v2.23h-3.51V483c0-2.49-.24-3.32-1.18-4.19-.44-.4-.68-.46-1.9-.46s-1.4 0-1.9.59c-.74.81-.92 1.66-.92 4.15v2.18h-3.47l-.08-2.55c-.05-2.27-.09-2.6-.48-3.23a2.56 2.56 0 0 0-2.54-1.23c-.93 0-1.09 0-1.65.61-.81.81-1 1.66-1 4.22v2.18h-3.69v-2.18c0-2.49-.19-3.34-.91-4.13-.46-.52-.64-.59-1.7-.65a2.56 2.56 0 0 0-1.77.3c-1 .64-1.23 1.29-1.31 4.11l-.07 2.55h-3.29V483c0-2 0-2.36-.4-3.08a2.75 2.75 0 0 0-2.77-1.66c-1 0-1.16.07-1.63.51-.71.74-.92 1.63-.92 4.23v2.27h-3.69V483c0-2.47-.24-3.32-1.18-4.19a2.22 2.22 0 0 0-1.64-.5 3.37 3.37 0 0 0-1.58.14Zm8.1 31.15v15.88h-3.69v-31.75h3.69Zm9.05 0v15.88h-3.33v-31.75h3.33Zm9.41 0v15.88h-3.69v-31.75h3.69Zm9.23 0v15.88h-3.51v-31.75h3.51Zm9.41 0v15.88h-3.51v-31.75h3.51Zm9.41 0v15.88H185v-31.75h3.69Zm8.86 0v15.88h-3.14v-31.75h3.14Zm10.89 6.4a3.18 3.18 0 0 1 1.57 3.25 3.64 3.64 0 0 1-2.14 2.2 3 3 0 0 1-3.38-1.55 3 3 0 0 1 1.55-4 4 4 0 0 1 2.4.1Zm.2 11.78a4 4 0 0 1 1.46 2.51 3.56 3.56 0 0 1-1.44 2.45 3.08 3.08 0 0 1-4-.81 3.14 3.14 0 0 1-.13-3.06 3 3 0 0 1 4.11-1.12Z"/>
            <path class="cls-12" d="M750.68 875.46c64.33 0 93.31-4 116.49-25H750.69M116.49 875.46c-64.33 0-93.31-4-116.49-25h116.48"/>
            <path class="cls-12" d="M116.48 850.51h634.19v24.95H116.48z"/>
        </g>
    </g>
</svg>
