<svg xmlns="http://www.w3.org/2000/svg" viewBox="0 0 364.18 124.28"><defs><style>.cls-1{isolation:isolate;}.cls-2,.cls-3{fill:#231f20;}.cls-2{opacity:0.5;mix-blend-mode:screen;}</style></defs><g class="cls-1"><g id="Layer_2" data-name="Layer 2"><g id="Layer_1-2" data-name="Layer 1"><g id="Offset_Group" data-name="Offset Group"><path class="cls-2" d="M311.68,33.89a1.67,1.67,0,0,1-.66-1.3V17.93a1.68,1.68,0,0,1,.66-1.3,2.49,2.49,0,0,1,1.58-.53h2.61a2.53,2.53,0,0,1,1.59.53,1.7,1.7,0,0,1,.65,1.3V32.59a1.69,1.69,0,0,1-.65,1.3,2.53,2.53,0,0,1-1.59.53h-2.61A2.49,2.49,0,0,1,311.68,33.89Zm0,24.58a1.66,1.66,0,0,1-.66-1.29V42.52a1.67,1.67,0,0,1,.66-1.3,2.49,2.49,0,0,1,1.58-.54h2.61a2.54,2.54,0,0,1,1.59.54,1.69,1.69,0,0,1,.65,1.3V57.18a1.68,1.68,0,0,1-.65,1.29,2.48,2.48,0,0,1-1.59.54h-2.61A2.43,2.43,0,0,1,311.68,58.47Zm0,24.59a1.67,1.67,0,0,1-.66-1.3V67.1a1.66,1.66,0,0,1,.66-1.29,2.49,2.49,0,0,1,1.58-.54h2.61a2.54,2.54,0,0,1,1.59.54,1.68,1.68,0,0,1,.65,1.29V81.76a1.69,1.69,0,0,1-.65,1.3,2.54,2.54,0,0,1-1.59.54h-2.61A2.49,2.49,0,0,1,311.68,83.06Zm0,24.59a1.67,1.67,0,0,1-.66-1.3V91.69a1.68,1.68,0,0,1,.66-1.3,2.49,2.49,0,0,1,1.58-.53h2.61a2.53,2.53,0,0,1,1.59.53,1.7,1.7,0,0,1,.65,1.3v14.66a1.69,1.69,0,0,1-.65,1.3,2.53,2.53,0,0,1-1.59.53h-2.61A2.49,2.49,0,0,1,311.68,107.65ZM2.79,122a10.68,10.68,0,0,0,6.73,2.27H303.63a8.31,8.31,0,0,1,3.19-5.75,12.77,12.77,0,0,1,15.5,0,8.31,8.31,0,0,1,3.19,5.75h29.15a10.68,10.68,0,0,0,6.73-2.27,7.1,7.1,0,0,0,2.79-5.5v-7.62h-.59a2.51,2.51,0,0,1-1.59-.53,1.67,1.67,0,0,1-.66-1.3V92.4a1.68,1.68,0,0,1,.66-1.3,2.51,2.51,0,0,1,1.59-.53h.59V84.31h-.59a2.52,2.52,0,0,1-1.59-.54,1.66,1.66,0,0,1-.66-1.29V67.81a1.66,1.66,0,0,1,.66-1.29,2.52,2.52,0,0,1,1.59-.54h.59V59.72h-.59a2.46,2.46,0,0,1-1.59-.54,1.66,1.66,0,0,1-.66-1.29V43.23a1.67,1.67,0,0,1,.66-1.3,2.52,2.52,0,0,1,1.59-.54h.59V35.13h-.59A2.51,2.51,0,0,1,362,34.6a1.67,1.67,0,0,1-.66-1.3V18.64a1.66,1.66,0,0,1,.66-1.29,2.46,2.46,0,0,1,1.59-.54h.59v-9a7.07,7.07,0,0,0-2.79-5.49A10.63,10.63,0,0,0,354.66,0H325.51a8.31,8.31,0,0,1-3.19,5.75,12.25,12.25,0,0,1-7.75,2.62,12.25,12.25,0,0,1-7.75-2.62A8.31,8.31,0,0,1,303.63,0H9.52A10.63,10.63,0,0,0,2.79,2.28,7.07,7.07,0,0,0,0,7.77v9H.6a2.43,2.43,0,0,1,1.58.54,1.65,1.65,0,0,1,.66,1.29V33.3a1.67,1.67,0,0,1-.66,1.3,2.49,2.49,0,0,1-1.58.53H0v6.26H.6a2.49,2.49,0,0,1,1.58.54,1.67,1.67,0,0,1,.66,1.3V57.89a1.66,1.66,0,0,1-.66,1.29,2.43,2.43,0,0,1-1.58.54H0V66H.6a2.49,2.49,0,0,1,1.58.54,1.66,1.66,0,0,1,.66,1.29V82.48a1.66,1.66,0,0,1-.66,1.29,2.49,2.49,0,0,1-1.58.54H0v6.26H.6a2.49,2.49,0,0,1,1.58.53,1.68,1.68,0,0,1,.66,1.3v14.66a1.67,1.67,0,0,1-.66,1.3,2.49,2.49,0,0,1-1.58.53H0v7.62A7.1,7.1,0,0,0,2.79,122Z"/><path class="cls-2" d="M311.18,34.3a2.2,2.2,0,0,1-.87-1.71V17.93a2.19,2.19,0,0,1,.87-1.7,3.27,3.27,0,0,1,2.08-.71h2.61a3.32,3.32,0,0,1,2.09.71,2.21,2.21,0,0,1,.86,1.7V32.59A2.22,2.22,0,0,1,318,34.3a3.37,3.37,0,0,1-2.09.7h-2.61A3.32,3.32,0,0,1,311.18,34.3Zm0,24.58a2.19,2.19,0,0,1-.87-1.7V42.52a2.2,2.2,0,0,1,.87-1.71,3.32,3.32,0,0,1,2.08-.7h2.61a3.37,3.37,0,0,1,2.09.7,2.22,2.22,0,0,1,.86,1.71V57.18a2.21,2.21,0,0,1-.86,1.7,3.32,3.32,0,0,1-2.09.71h-2.61A3.27,3.27,0,0,1,311.18,58.88Zm0,24.59a2.2,2.2,0,0,1-.87-1.71V67.1a2.19,2.19,0,0,1,.87-1.7,3.32,3.32,0,0,1,2.08-.71h2.61a3.38,3.38,0,0,1,2.09.71,2.21,2.21,0,0,1,.86,1.7V81.76a2.22,2.22,0,0,1-.86,1.71,3.37,3.37,0,0,1-2.09.7h-2.61A3.32,3.32,0,0,1,311.18,83.47Zm0,24.59a2.2,2.2,0,0,1-.87-1.71V91.69a2.19,2.19,0,0,1,.87-1.7,3.27,3.27,0,0,1,2.08-.71h2.61A3.32,3.32,0,0,1,318,90a2.21,2.21,0,0,1,.86,1.7v14.66a2.22,2.22,0,0,1-.86,1.71,3.37,3.37,0,0,1-2.09.7h-2.61A3.32,3.32,0,0,1,311.18,108.06ZM3.29,121.6a9.85,9.85,0,0,0,6.23,2.11H303a8.91,8.91,0,0,1,3.33-5.58,13.59,13.59,0,0,1,16.5,0,8.91,8.91,0,0,1,3.33,5.58h28.51a9.85,9.85,0,0,0,6.23-2.11,6.57,6.57,0,0,0,2.58-5.09v-7a3.29,3.29,0,0,1-2-.7,2.24,2.24,0,0,1-.87-1.71V92.4a2.22,2.22,0,0,1,.87-1.7,3.29,3.29,0,0,1,2-.71V84.88a3.29,3.29,0,0,1-2-.7,2.23,2.23,0,0,1-.87-1.7V67.81a2.23,2.23,0,0,1,.87-1.7,3.29,3.29,0,0,1,2-.7V60.3a3.29,3.29,0,0,1-2-.71,2.22,2.22,0,0,1-.87-1.7V43.23a2.24,2.24,0,0,1,.87-1.71,3.29,3.29,0,0,1,2-.7V35.71a3.29,3.29,0,0,1-2-.7,2.24,2.24,0,0,1-.87-1.71V18.64a2.22,2.22,0,0,1,.87-1.7,3.29,3.29,0,0,1,2-.71V7.77a6.58,6.58,0,0,0-2.58-5.09,9.85,9.85,0,0,0-6.23-2.1H326.15a8.94,8.94,0,0,1-3.33,5.58A13.09,13.09,0,0,1,314.57,9a13.09,13.09,0,0,1-8.25-2.79A8.94,8.94,0,0,1,303,.58H9.52a9.85,9.85,0,0,0-6.23,2.1A6.58,6.58,0,0,0,.71,7.77v8.46a3.29,3.29,0,0,1,2,.71,2.19,2.19,0,0,1,.87,1.7V33.3A2.2,2.2,0,0,1,2.68,35a3.29,3.29,0,0,1-2,.7v5.11a3.29,3.29,0,0,1,2,.7,2.2,2.2,0,0,1,.87,1.71V57.89a2.19,2.19,0,0,1-.87,1.7,3.29,3.29,0,0,1-2,.71v5.11a3.29,3.29,0,0,1,2,.7,2.2,2.2,0,0,1,.87,1.7V82.48a2.2,2.2,0,0,1-.87,1.7,3.29,3.29,0,0,1-2,.7V90a3.29,3.29,0,0,1,2,.71,2.19,2.19,0,0,1,.87,1.7v14.66a2.2,2.2,0,0,1-.87,1.71,3.29,3.29,0,0,1-2,.7v7A6.57,6.57,0,0,0,3.29,121.6Z"/><path class="cls-3" d="M310.68,34.7a2.73,2.73,0,0,1-1.07-2.11V17.93a2.74,2.74,0,0,1,1.07-2.11,4.1,4.1,0,0,1,2.58-.88h2.61a4.11,4.11,0,0,1,2.59.88,2.74,2.74,0,0,1,1.07,2.11V32.59a2.73,2.73,0,0,1-1.07,2.11,4.11,4.11,0,0,1-2.59.88h-2.61A4.1,4.1,0,0,1,310.68,34.7Zm0,24.59a2.74,2.74,0,0,1-1.07-2.11V42.52a2.71,2.71,0,0,1,1.07-2.11,4.1,4.1,0,0,1,2.58-.88h2.61a4.11,4.11,0,0,1,2.59.88,2.71,2.71,0,0,1,1.07,2.11V57.18a2.74,2.74,0,0,1-1.07,2.11,4.1,4.1,0,0,1-2.59.87h-2.61A4.09,4.09,0,0,1,310.68,59.29Zm0,24.59a2.75,2.75,0,0,1-1.07-2.12V67.1A2.74,2.74,0,0,1,310.68,65a4.09,4.09,0,0,1,2.58-.87h2.61a4.1,4.1,0,0,1,2.59.87,2.74,2.74,0,0,1,1.07,2.11V81.76a2.75,2.75,0,0,1-1.07,2.12,4.16,4.16,0,0,1-2.59.87h-2.61A4.15,4.15,0,0,1,310.68,83.88Zm0,24.58a2.73,2.73,0,0,1-1.07-2.11V91.69a2.74,2.74,0,0,1,1.07-2.11,4.1,4.1,0,0,1,2.58-.88h2.61a4.11,4.11,0,0,1,2.59.88,2.74,2.74,0,0,1,1.07,2.11v14.66a2.73,2.73,0,0,1-1.07,2.11,4.11,4.11,0,0,1-2.59.88h-2.61A4.1,4.1,0,0,1,310.68,108.46ZM3.79,121.19a9.06,9.06,0,0,0,5.73,1.94H302.38a9.61,9.61,0,0,1,3.44-5.41,14.41,14.41,0,0,1,17.5,0,9.61,9.61,0,0,1,3.44,5.41h27.9a9,9,0,0,0,5.73-1.94,6.06,6.06,0,0,0,2.38-4.68V110a4,4,0,0,1-1.77-.8,2.73,2.73,0,0,1-1.07-2.11V92.4A2.74,2.74,0,0,1,361,90.29a4,4,0,0,1,1.77-.8v-4.1a4,4,0,0,1-1.77-.8,2.74,2.74,0,0,1-1.07-2.11V67.81A2.74,2.74,0,0,1,361,65.7a3.9,3.9,0,0,1,1.77-.8V60.8A4,4,0,0,1,361,60a2.74,2.74,0,0,1-1.07-2.11V43.23A2.71,2.71,0,0,1,361,41.12a3.84,3.84,0,0,1,1.77-.8V36.21a3.79,3.79,0,0,1-1.77-.8,2.71,2.71,0,0,1-1.07-2.11V18.64A2.74,2.74,0,0,1,361,16.53a4,4,0,0,1,1.77-.8v-8a6.06,6.06,0,0,0-2.38-4.68,9,9,0,0,0-5.73-1.94h-27.9a9.61,9.61,0,0,1-3.44,5.41,13.84,13.84,0,0,1-8.75,3,13.84,13.84,0,0,1-8.75-3,9.61,9.61,0,0,1-3.44-5.41H9.52A9.06,9.06,0,0,0,3.79,3.09,6.06,6.06,0,0,0,1.41,7.77v8a3.9,3.9,0,0,1,1.77.8,2.74,2.74,0,0,1,1.07,2.11V33.3a2.71,2.71,0,0,1-1.07,2.11,3.79,3.79,0,0,1-1.77.8v4.11a3.79,3.79,0,0,1,1.77.8,2.71,2.71,0,0,1,1.07,2.11V57.89A2.74,2.74,0,0,1,3.18,60a3.9,3.9,0,0,1-1.77.8v4.1a3.9,3.9,0,0,1,1.77.8,2.74,2.74,0,0,1,1.07,2.11V82.48a2.74,2.74,0,0,1-1.07,2.11,3.9,3.9,0,0,1-1.77.8v4.1a3.9,3.9,0,0,1,1.77.8A2.74,2.74,0,0,1,4.25,92.4v14.66a2.73,2.73,0,0,1-1.07,2.11,3.9,3.9,0,0,1-1.77.8v6.54A6.06,6.06,0,0,0,3.79,121.19Z"/></g></g></g></g></svg>